<?xml version="1.0" encoding="UTF-8"?>
<svg version="1.1" xmlns="http://www.w3.org/2000/svg" width="1024" height="1024">
<path d="M0 0 C337.92 0 675.84 0 1024 0 C1024 337.92 1024 675.84 1024 1024 C686.08 1024 348.16 1024 0 1024 C0 686.08 0 348.16 0 0 Z " fill="#F8F7F3" transform="translate(0,0)"/>
<path d="M0 0 C1.38339925 -0.00350277 2.76679448 -0.00916312 4.150177 -0.01681519 C7.90029812 -0.03104956 11.64968482 -0.01401653 15.39973569 0.00946999 C19.32564586 0.02959122 23.25152592 0.02369884 27.17747498 0.0213623 C33.76899313 0.02141586 40.36022444 0.04116217 46.95166016 0.07324219 C54.57200363 0.11014955 62.19197159 0.11891548 69.81239277 0.11194468 C77.14498372 0.10563982 84.47744594 0.11639261 91.81001091 0.13591003 C94.92994967 0.14408412 98.04982263 0.14679358 101.16977119 0.1452179 C104.84297212 0.14433902 108.51581612 0.15855544 112.18892288 0.18444443 C114.18002317 0.19502371 116.17118443 0.19093359 118.16230774 0.18643188 C119.93931061 0.20345657 119.93931061 0.20345657 121.75221252 0.2208252 C123.29661436 0.22641827 123.29661436 0.22641827 124.87221622 0.23212433 C127.99030459 0.6778142 129.33635755 1.39786856 131.55249023 3.61523438 C133.53223991 9.91679053 132.52647065 13.38131131 129.60717773 19.24804688 C128.25408201 21.76898395 126.84443522 24.25478314 125.42749023 26.74023438 C124.69282396 28.06672878 123.96009561 29.39429821 123.22924805 30.72290039 C121.38282408 34.06612285 119.50996336 37.39359053 117.62683105 40.71624756 C115.98390519 43.62025576 114.35922253 46.53433058 112.73217773 49.44726562 C104.22269285 64.62845089 104.22269285 64.62845089 101.49951172 68.63796997 C98.90076445 73.21948419 98.97832108 77.51515561 99.0065918 82.68139648 C98.99625412 83.6675293 98.98591644 84.65366211 98.9752655 85.66967773 C98.94590109 88.91081247 98.94433964 92.15132098 98.94311523 95.39257812 C98.92812935 97.6470305 98.91140135 99.90147192 98.89300537 102.15589905 C98.84936589 108.07582105 98.82934012 113.99559494 98.81427002 119.91564941 C98.79468684 125.9620844 98.75271809 132.00835973 98.71264648 138.0546875 C98.63738105 149.90815384 98.58706722 161.76158439 98.55249023 173.61523438 C99.81963867 173.59203125 101.08678711 173.56882812 102.39233398 173.54492188 C104.09154678 173.52614604 105.79076603 173.50794781 107.48999023 173.49023438 C108.32079102 173.47347656 109.1515918 173.45671875 110.00756836 173.43945312 C124.19881964 173.32901537 136.07449473 178.33944702 146.36499023 188.20117188 C155.94505671 198.77345952 159.74576037 212.06206864 159.65014648 226.07617188 C159.64873154 226.86673981 159.64731659 227.65730774 159.64585876 228.47183228 C159.64029528 230.97800604 159.62774967 233.48408796 159.61499023 235.99023438 C159.60997051 237.69726433 159.60540843 239.40429569 159.60131836 241.11132812 C159.59033783 245.27933185 159.57309862 249.44726758 159.55249023 253.61523438 C160.6262793 253.58042969 161.70006836 253.545625 162.80639648 253.50976562 C164.24257862 253.48160519 165.67877785 253.45430747 167.11499023 253.42773438 C167.81946289 253.40259766 168.52393555 253.37746094 169.24975586 253.3515625 C175.33302687 253.26746198 180.16762367 254.3666459 184.73999023 258.67773438 C193.1578078 272.32040422 193.87279866 290.15404994 190.36499023 305.55273438 C188.44764275 311.75698141 185.47692785 318.36634923 179.55249023 321.61523438 C175.48648773 322.82837475 171.50922809 322.72604497 167.30249023 322.67773438 C166.55741211 322.67322266 165.81233398 322.66871094 165.04467773 322.6640625 C163.21391383 322.65232683 161.38319151 322.63439288 159.55249023 322.61523438 C159.59889648 323.33066406 159.64530273 324.04609375 159.69311523 324.78320312 C160.17440372 338.07020313 156.16571726 350.10232806 147.34155273 360.12695312 C141.43537475 366.21953872 141.43537475 366.21953872 137.95629883 367.77880859 C135.20907182 369.45928472 135.20907182 369.45928472 134.89306641 372.89331055 C134.85203539 374.23107306 134.83776941 375.56983361 134.84545898 376.90820312 C134.83033768 377.61423172 134.81521637 378.32026031 134.79963684 379.04768372 C134.75669534 381.29969047 134.74791691 383.55035871 134.73999023 385.80273438 C134.71685052 387.33076491 134.69148625 388.8587635 134.66381836 390.38671875 C134.60090389 394.1296759 134.56861893 397.87179502 134.55249023 401.61523438 C135.85283203 401.5262085 137.15317383 401.43718262 138.49291992 401.34545898 C143.36634491 401.03531279 148.23892805 400.84181366 153.11938477 400.68139648 C155.22146633 400.5964297 157.32255831 400.480785 159.42114258 400.33276367 C176.28691124 399.17389369 176.28691124 399.17389369 181.61398315 403.15640259 C185.33935186 407.12446838 187.93826784 411.67189074 190.42828369 416.4838562 C191.92624878 419.32384153 193.71608118 421.91316953 195.55639648 424.54101562 C196.74468283 426.33520713 197.93086704 428.13079257 199.11499023 429.92773438 C206.41144902 440.93726396 213.8119106 451.87313391 221.2424469 462.79240417 C222.34223964 464.41012196 223.43958784 466.02950081 224.53686523 467.64892578 C225.81999003 469.53724534 227.1108403 471.42035523 228.41186523 473.29638672 C228.95584961 474.08867676 229.49983398 474.8809668 230.06030273 475.69726562 C230.52839355 476.37120361 230.99648438 477.0451416 231.47875977 477.73950195 C233.30191503 480.92442734 233.36600417 483.09000734 232.55249023 486.61523438 C229.18920653 490.33289601 226.9581875 491.90057481 221.92068481 492.21650696 C220.08589881 492.23092117 218.25076807 492.21788619 216.41625977 492.18286133 C215.41076584 492.18359146 214.40527191 492.18432159 213.36930847 492.18507385 C210.0574178 492.18160017 206.74694666 492.14274758 203.43530273 492.10351562 C201.13460051 492.09418677 198.83388833 492.087071 196.53317261 492.08207703 C190.48637325 492.06301324 184.4401772 492.0139167 178.39361572 491.95855713 C172.22009441 491.90735193 166.04647533 491.8845602 159.87280273 491.859375 C147.76576726 491.80579824 135.65917898 491.72049208 123.55249023 491.61523438 C123.51109302 473.40185467 123.51109302 473.40185467 123.77124023 465.08007812 C123.79343628 464.30507462 123.81563232 463.53007111 123.83850098 462.73158264 C123.90754522 460.33855963 123.9799259 457.94565293 124.05249023 455.55273438 C124.1008928 453.8958399 124.14907082 452.23893886 124.19702148 450.58203125 C124.31293806 446.59301886 124.43183897 442.60410626 124.55249023 438.61523438 C123.9016748 438.68669678 123.25085938 438.75815918 122.58032227 438.83178711 C117.84476826 439.33226794 113.19568728 439.73886511 108.42749023 439.67773438 C107.49678711 439.66871094 106.56608398 439.6596875 105.60717773 439.65039062 C104.92913086 439.63878906 104.25108398 439.6271875 103.55249023 439.61523438 C103.0794043 438.59945313 102.60631836 437.58367187 102.11889648 436.53710938 C90.79329545 412.74231765 73.30333847 395.20959147 48.55249023 385.61523438 C23.57284192 376.86962446 -2.43932045 377.53217783 -26.44750977 388.61523438 C-35.21077514 392.90095185 -43.13439845 398.13607435 -50.44750977 404.61523438 C-51.12040039 405.19402344 -51.79329102 405.7728125 -52.48657227 406.36914062 C-61.28137012 414.48067729 -68.1585559 425.50294483 -72.44750977 436.61523438 C-73.76750977 436.61523438 -75.08750977 436.61523438 -76.44750977 436.61523438 C-76.48191162 436.04828857 -76.51631348 435.48134277 -76.55175781 434.8972168 C-78.77117436 400.6975563 -90.29781007 370.03963056 -115.82250977 346.36523438 C-132.37885013 332.45434157 -151.03524062 322.4501881 -172.13500977 317.36523438 C-172.81168701 317.2018457 -173.48836426 317.03845703 -174.18554688 316.87011719 C-204.25110168 310.06555924 -234.99620739 316.44022417 -261.44750977 331.61523438 C-286.90653073 347.71128387 -306.54113826 371.62313964 -315.44750977 400.61523438 C-316.10750977 400.61523438 -316.76750977 400.61523438 -317.44750977 400.61523438 C-317.78782227 399.62265625 -318.12813477 398.63007812 -318.47875977 397.60742188 C-329.76927843 365.58917772 -352.17384617 341.26803513 -382.48266602 326.36450195 C-411.8666211 312.36386988 -445.19859249 310.61777797 -475.91772461 321.14770508 C-507.63205603 332.57495437 -531.38392256 356.23715382 -545.59985352 386.45898438 C-552.91993578 402.65661321 -555.35414623 419.03022899 -557.44750977 436.61523438 C-559.65521781 436.69688933 -561.86381402 436.75471925 -564.07250977 436.80273438 C-565.30227539 436.83753906 -566.53204102 436.87234375 -567.79907227 436.90820312 C-572.56674435 436.52536008 -575.97046877 435.19414027 -579.26000977 431.67773438 C-581.27705181 428.17445082 -581.5749994 424.92194672 -581.60864258 420.92602539 C-581.61825012 420.00149063 -581.62785767 419.07695587 -581.63775635 418.12440491 C-581.64200623 417.13266769 -581.6462561 416.14093048 -581.65063477 415.11914062 C-581.65918488 413.58059669 -581.65918488 413.58059669 -581.66790771 412.01097107 C-581.6773462 409.84318063 -581.68388712 407.67537592 -581.68774414 405.50756836 C-581.69746325 402.19359369 -581.7285034 398.88023579 -581.76000977 395.56640625 C-581.76653884 393.45898805 -581.77178968 391.35156543 -581.77563477 389.24414062 C-581.78798157 388.25442764 -581.80032837 387.26471466 -581.81304932 386.24501038 C-581.79308749 380.07449412 -581.0348176 376.63376018 -576.94750977 371.86523438 C-568.26309566 364.62822262 -541.6620462 369.61523438 -540.44750977 369.61523438 C-540.11750977 270.94523437 -539.78750977 172.27523437 -539.44750977 70.61523438 C-545.05750977 70.61523438 -550.66750977 70.61523438 -556.44750977 70.61523438 C-563.53365361 65.89113848 -563.53365361 65.89113848 -565.44750977 60.61523438 C-565.83569336 57.3671875 -565.83569336 57.3671875 -565.84594727 53.89648438 C-565.85174805 52.00349609 -565.85174805 52.00349609 -565.85766602 50.07226562 C-565.84606445 48.76644531 -565.83446289 47.460625 -565.82250977 46.11523438 C-565.83991211 44.15650391 -565.83991211 44.15650391 -565.85766602 42.15820312 C-565.85379883 40.89621094 -565.84993164 39.63421875 -565.84594727 38.33398438 C-565.84256348 37.18865234 -565.83917969 36.04332031 -565.83569336 34.86328125 C-565.2399412 29.87844682 -563.80209267 26.82302599 -560.0411911 23.46967983 C-555.44634758 20.56227643 -550.36449657 21.06683687 -545.09851074 21.11402893 C-543.37595369 21.10572734 -543.37595369 21.10572734 -541.61859751 21.09725803 C-538.43967697 21.08601361 -535.26137976 21.09267244 -532.08249021 21.10699475 C-528.6509314 21.11811184 -525.2194418 21.10615953 -521.78788757 21.09715271 C-515.06891277 21.0832232 -508.35012598 21.09077422 -501.63116014 21.10582829 C-493.80600339 21.1226931 -485.98089341 21.11947753 -478.15572411 21.11573421 C-464.19321494 21.10985616 -450.23079595 21.12402502 -436.26831055 21.14868164 C-422.72107563 21.17260226 -409.17396122 21.17968583 -395.62670898 21.16918945 C-380.87321356 21.15777895 -366.11977387 21.15585181 -351.36627913 21.17028755 C-349.79294809 21.17181338 -348.21961705 21.17333374 -346.64628601 21.17484856 C-345.48513483 21.17598528 -345.48513483 21.17598528 -344.30052605 21.17714496 C-338.84652656 21.18188677 -333.39255197 21.18003709 -327.93855286 21.17578316 C-321.29156441 21.17085537 -314.64468988 21.17684582 -307.99772751 21.19667745 C-304.60659158 21.20654599 -301.21562905 21.21165942 -297.82448387 21.20378494 C-294.14830572 21.19784456 -290.47264067 21.2103143 -286.79650879 21.22755432 C-285.72472208 21.22154428 -284.65293538 21.21553423 -283.54867029 21.20934206 C-278.10164875 21.25591633 -274.12948386 21.49757178 -269.44750977 24.61523438 C-264.06116319 30.55878922 -265.22797727 37.80929283 -265.19750977 45.36523438 C-265.16657227 47.26015625 -265.16657227 47.26015625 -265.13500977 49.19335938 C-265.08354456 61.4420778 -265.08354456 61.4420778 -268.44750977 66.61523438 C-274.44750977 70.61523438 -274.44750977 70.61523438 -291.44750977 70.61523438 C-291.44750977 104.60523438 -291.44750977 138.59523438 -291.44750977 173.61523438 C-260.09750977 173.61523438 -228.74750977 173.61523438 -196.44750977 173.61523438 C-196.60546786 154.6034068 -196.60546786 154.6034068 -196.80786133 135.59204102 C-196.81955234 133.19483149 -196.82974318 130.79761397 -196.83813477 128.40039062 C-196.85859863 127.17251831 -196.8790625 125.944646 -196.90014648 124.67956543 C-196.90456896 113.73062419 -193.8589575 105.71134241 -186.44750977 97.61523438 C-177.25446847 89.19961729 -168.36182265 86.95174019 -156.07250977 87.11523438 C-154.34000977 87.09203125 -154.34000977 87.09203125 -152.57250977 87.06835938 C-140.34059023 87.12358249 -131.7411515 90.22748111 -122.90454102 98.74804688 C-105.28456117 119.30935881 -113.44750977 148.5543475 -113.44750977 173.61523438 C-70.54750977 173.61523438 -27.64750977 173.61523438 16.55249023 173.61523438 C16.65561523 157.42460937 16.75874023 141.23398437 16.86499023 124.55273438 C16.93113525 119.48921631 16.99728027 114.42569824 17.06542969 109.20874023 C17.69609622 78.47115543 17.69609622 78.47115543 4.17684937 51.70401001 C1.66834479 48.47830509 -0.15790339 44.95518213 -2.04125977 41.34179688 C-2.70236704 40.13444482 -3.36633392 38.92865323 -4.03344727 37.72460938 C-4.66508789 36.57476562 -5.29672852 35.42492187 -5.94750977 34.24023438 C-6.94697257 32.42364979 -7.94680331 30.60726844 -8.9468689 28.79101562 C-9.88147855 27.09250637 -10.81418928 25.39295266 -11.74682617 23.69335938 C-12.820865 21.74942002 -13.9051597 19.81108011 -15.00366211 17.88085938 C-15.45692871 17.08421875 -15.91019531 16.28757812 -16.37719727 15.46679688 C-16.96090088 14.45480225 -16.96090088 14.45480225 -17.55639648 13.42236328 C-18.95588573 10.58427578 -19.14602373 8.68869583 -18.44750977 5.61523438 C-14.0151523 -1.25649444 -7.52207608 -0.07708826 0 0 Z " fill="#000000" transform="translate(692.447509765625,300.384765625)"/>
<path d="M0 0 C26.41847223 -0.89176278 51.4532553 8.62585028 70.96484375 26.21875 C71.80660156 26.96640625 72.64835938 27.7140625 73.515625 28.484375 C95.12103388 48.77934695 104.43282725 77.94023935 105.33984375 106.90625 C104.87065296 136.78783821 92.491067 163.34478199 71.39599609 184.20483398 C54.91774997 199.98604194 33.85660799 208.74580894 11.96484375 214.21875 C83.57484375 214.21875 155.18484375 214.21875 228.96484375 214.21875 C222.69484375 212.56875 216.42484375 210.91875 209.96484375 209.21875 C180.92848788 198.58166914 158.20258965 178.30179585 144.91503906 150.34863281 C133.08229574 123.82528936 132.8263812 93.94194394 142.77734375 66.84375 C153.55737164 39.19226343 173.17356346 19.13106467 200.19140625 7.1328125 C224.27538309 -2.94044516 252.23227954 -2.50815558 276.33984375 6.96875 C288.35892999 11.92639613 298.19386823 18.65640483 307.96484375 27.21875 C309.12306641 28.23195313 309.12306641 28.23195313 310.3046875 29.265625 C328.20670614 46.0035405 339.90898746 73.08505565 341.06982422 97.41943359 C342.04859472 126.97100757 334.107039 154.24900425 314.40234375 176.53125 C312.9311197 178.10123091 311.45237585 179.66421195 309.96484375 181.21875 C309.34222656 181.90453125 308.71960938 182.5903125 308.078125 183.296875 C291.85709928 200.57209736 268.55904335 209.19781676 245.96484375 214.21875 C305.03484375 214.21875 364.10484375 214.21875 424.96484375 214.21875 C421.66484375 212.89875 418.36484375 211.57875 414.96484375 210.21875 C396.41802853 199.40494358 384.30875558 183.50533117 378 163.09765625 C372.77594276 142.65883323 375.37446569 120.83176212 385.52734375 102.37890625 C397.3722643 82.82930358 414.83635362 70.69202017 436.96484375 65.21875 C457.38258903 61.05752474 477.41287537 66.51745807 494.953125 77.15625 C512.40212668 89.10576088 524.38132542 107.86365833 528.53125 128.61328125 C531.08692099 149.86449133 527.51042839 170.47895272 514.96484375 188.21875 C512.12832048 191.72486147 509.12569644 195.00349365 505.96484375 198.21875 C505.04251953 199.16041016 505.04251953 199.16041016 504.1015625 200.12109375 C497.7689007 206.10118766 489.24369424 211.45913317 480.96484375 214.21875 C482.23844427 214.21818446 482.23844427 214.21818446 483.53777409 214.2176075 C504.20306809 214.21048859 524.86809081 214.23640355 545.53329563 214.2990284 C555.52689127 214.32851793 565.52027427 214.34685073 575.51391602 214.33886719 C584.22499859 214.3319366 592.93575207 214.34599192 601.64675373 214.38518608 C606.25873527 214.40520591 610.87020007 214.41475811 615.48221016 214.39917374 C619.8253281 214.38482969 624.16745936 214.3985938 628.51045036 214.43370247 C630.10231138 214.44165595 631.69426165 214.43943446 633.28608704 214.42614174 C646.80448466 214.32282258 646.80448466 214.32282258 651.34190369 218.01705933 C654.40155893 221.21440274 655.86872983 224.18071962 656.27734375 228.59375 C655.8203633 233.89472317 654.35519478 236.96404297 650.40234375 240.53125 C646.83469998 243.00115723 645.04209294 243.34426691 640.73479199 243.34755117 C639.61663618 243.35082336 638.49848036 243.35409555 637.34644103 243.35746691 C635.48462357 243.35524147 635.48462357 243.35524147 633.58519363 243.35297108 C631.61409638 243.35649942 631.61409638 243.35649942 629.60317898 243.36009905 C625.92705237 243.36652626 622.25094754 243.36665851 618.57481638 243.36582164 C614.58626926 243.3659906 610.59773008 243.3718907 606.60918689 243.3770625 C598.68552752 243.38640822 590.76187375 243.39031385 582.83820956 243.39258147 C573.35263476 243.3955384 563.86706742 243.40423275 554.38149652 243.41299575 C531.4519809 243.43386138 508.52246398 243.444313 485.59294108 243.45312535 C474.75160333 243.45732857 463.91026614 243.46255097 453.06892885 243.46780988 C415.9778348 243.48570129 378.88674058 243.50069884 341.79564285 243.50813007 C339.46612574 243.50860484 337.13660863 243.50908072 334.80709152 243.50955774 C333.65182944 243.50979411 332.49656736 243.51003049 331.30629733 243.51027403 C325.45289614 243.51147526 319.59949494 243.5126907 313.74609375 243.51391602 C312.00363782 243.51427624 312.00363782 243.51427624 310.22598075 243.51464374 C272.54686273 243.52254 234.86777615 243.54597795 197.18867186 243.57847196 C157.37767116 243.61274199 117.56668887 243.63247856 77.75567317 243.63577431 C73.3883926 243.63619187 69.02111204 243.63667144 64.65383148 243.63719749 C63.04074118 243.63738228 63.04074118 243.63738228 61.39506319 243.6375708 C44.06239237 243.6399063 26.72975797 243.65558565 9.39710015 243.67603934 C-8.01303533 243.69625909 -25.4231269 243.70179293 -42.83327195 243.69226871 C-53.18559409 243.68703879 -63.53777041 243.69300126 -73.89007167 243.71480338 C-80.79822245 243.72825665 -87.70627226 243.72728321 -94.61442392 243.71440142 C-98.555171 243.70746813 -102.49563822 243.70695924 -106.43636093 243.72396151 C-110.67517042 243.74210158 -114.91332302 243.72951917 -119.15214157 243.71373463 C-120.38398855 243.72395683 -121.61583552 243.73417904 -122.8850112 243.74471101 C-129.22607362 243.69274575 -133.26487637 243.57717512 -138.03515625 239.21875 C-141.34756861 235.38332516 -142.70816266 232.39536547 -142.421875 227.2421875 C-141.55918698 222.72832494 -139.49420635 219.27937949 -135.73191547 216.54445171 C-132.74765415 215.07741665 -130.88037929 214.83624373 -127.57450867 214.82002258 C-126.49062363 214.80748444 -125.40673859 214.79494629 -124.29000854 214.7820282 C-123.11109039 214.78346329 -121.93217224 214.78489838 -120.7175293 214.78637695 C-119.46834213 214.7761853 -118.21915497 214.76599365 -116.93211365 214.75549316 C-113.51503818 214.73050443 -110.09839235 214.71864248 -106.68126273 214.71263909 C-103.1070878 214.70324838 -99.53303682 214.67704446 -95.9589386 214.65263367 C-89.19467998 214.60898405 -82.43044543 214.5804277 -75.66608888 214.55731028 C-67.96350881 214.53025032 -60.26105355 214.48633934 -52.55856264 214.44102156 C-36.71749135 214.34819735 -20.87639655 214.2765065 -5.03515625 214.21875 C-6.17315674 213.9619043 -7.31115723 213.70505859 -8.48364258 213.44042969 C-10.0073802 213.09073865 -11.53105871 212.74078996 -13.0546875 212.390625 C-13.80109497 212.22288574 -14.54750244 212.05514648 -15.31652832 211.88232422 C-31.77446278 208.07712472 -47.20356745 200.19714773 -60.03515625 189.21875 C-60.83308594 188.55359375 -61.63101563 187.8884375 -62.453125 187.203125 C-82.94608128 169.53787896 -92.9515675 147.34971659 -98.03515625 121.21875 C-98.23109375 120.26613281 -98.42703125 119.31351563 -98.62890625 118.33203125 C-102.21885881 90.82056791 -94.99980914 61.88538395 -78.12109375 39.80078125 C-60.97277193 18.57411323 -38.64997569 4.22458033 -11.28515625 0.90625 C-7.52882272 0.52519704 -3.76566056 0.27139896 0 0 Z " fill="#010101" transform="translate(255.03515625,635.78125)"/>
<path d="M0 0 C1.13856445 0.00829834 2.27712891 0.01659668 3.45019531 0.02514648 C21.33194984 0.38293437 37.76499655 6.3841408 51.1875 18.4375 C52.41919922 19.52998047 52.41919922 19.52998047 53.67578125 20.64453125 C60.46838621 27.02483849 68.507821 35.91164922 70.1875 45.4375 C70.76113281 45.2209375 71.33476563 45.004375 71.92578125 44.78125 C87.28579827 39.74670724 104.84235789 41.35662481 119.375 48.125 C136.50397922 57.28753698 147.35429921 71.67882006 153.1875 90 C154.79670419 96.70330917 154.43686742 103.59374957 154.1875 110.4375 C154.92226563 110.54964844 155.65703125 110.66179687 156.4140625 110.77734375 C164.26612542 112.64635591 170.68408888 118.98404722 175.1875 125.4375 C182.56959453 138.21158523 185.53697398 151.15735505 182.5 165.73828125 C179.15330818 175.59707758 172.76580307 185.64834846 163.1875 190.4375 C161.38213392 190.55890879 159.57240018 190.6175674 157.76318359 190.64624023 C156.62795258 190.66553085 155.49272156 190.68482147 154.3230896 190.70469666 C149.11404201 190.7623982 143.90507749 190.81204933 138.69580078 190.8425293 C135.95052937 190.86029148 133.20629517 190.89502315 130.46142578 190.94506836 C126.50297548 191.01714815 122.54501456 191.03954118 118.5859375 191.05859375 C117.36482269 191.08642441 116.14370789 191.11425507 114.8855896 191.14292908 C108.08581024 191.12658274 103.8645142 190.51325034 98.6640625 185.97077942 C96.76876551 184.00268131 95.21313249 182.03538105 93.8125 179.6875 C92.35312076 177.29053074 91.17968488 175.42968488 89.1875 173.4375 C86.72369121 173.39589165 84.33183801 173.45069623 81.875 173.5625 C68.21623719 173.83389661 55.69904827 169.13814249 45.4375 159.984375 C43.29073057 157.85102288 41.20927925 155.68902689 39.1875 153.4375 C38.52105469 153.88480469 37.85460937 154.33210937 37.16796875 154.79296875 C21.02349247 165.382842 4.33554236 170.9322275 -15.07421875 167.93359375 C-18.05945966 167.2506955 -20.91134322 166.41644225 -23.8125 165.4375 C-24.79734375 165.10878906 -25.7821875 164.78007812 -26.796875 164.44140625 C-37.54243049 160.4187825 -46.97261539 153.70134371 -53.8125 144.4375 C-54.43125 143.633125 -55.05 142.82875 -55.6875 142 C-56.05875 141.484375 -56.43 140.96875 -56.8125 140.4375 C-57.92625 141.035625 -59.04 141.63375 -60.1875 142.25 C-68.80950348 146.51257409 -76.91415417 147.99839922 -86.5 147.9375 C-87.55147217 147.93177979 -88.60294434 147.92605957 -89.6862793 147.92016602 C-103.13851109 147.61351832 -113.97992613 143.4875549 -124.8125 135.4375 C-125.87017578 134.67179687 -125.87017578 134.67179687 -126.94921875 133.890625 C-140.56767508 123.08147695 -147.54470342 106.21919466 -149.8125 89.4375 C-151.41619256 72.81385766 -145.75519324 56.87623295 -135.6875 43.75 C-128.05018565 34.86969992 -118.77741271 28.48975035 -107.8125 24.4375 C-106.96429688 24.11910156 -106.11609375 23.80070312 -105.2421875 23.47265625 C-92.30017083 19.28098816 -76.46651333 20.18640573 -64.25 26.1875 C-63.445625 26.6 -62.64125 27.0125 -61.8125 27.4375 C-57.51345021 27.19968022 -55.53665071 24.32487352 -52.75 21.3125 C-38.70345196 6.69329956 -20.08098739 -0.19014952 0 0 Z " fill="#000000" transform="translate(616.8125,83.5625)"/>
<path d="M0 0 C1.68442451 -0.00856522 1.68442451 -0.00856522 3.40287781 -0.01730347 C4.63566467 -0.01842133 5.86845154 -0.01953918 7.13859558 -0.02069092 C8.43637436 -0.02565582 9.73415314 -0.03062073 11.07125854 -0.03573608 C14.63335312 -0.04885323 18.19542885 -0.05530375 21.7575438 -0.05974674 C23.98364595 -0.06267871 26.20974296 -0.06678376 28.43584251 -0.07125092 C35.40264099 -0.08492434 42.36942771 -0.09459163 49.33623868 -0.09845281 C57.37492467 -0.10293266 65.41344056 -0.12047775 73.45207483 -0.1494534 C79.66789244 -0.17107986 85.88366222 -0.18115761 92.09951705 -0.18249393 C95.81091616 -0.18354131 99.52215533 -0.18943478 103.23351479 -0.20731354 C107.37515689 -0.22687698 111.51644362 -0.22250143 115.65812683 -0.21600342 C116.884841 -0.2252182 118.11155518 -0.23443298 119.3754425 -0.243927 C130.1653993 -0.19081543 130.1653993 -0.19081543 134.592453 3.14044189 C138.62474463 7.58386262 138.02249179 12.85550467 137.99650574 18.5269165 C138.00336899 19.5713945 138.01023224 20.6158725 138.01730347 21.69200134 C138.03559505 25.14240131 138.03173046 28.59234762 138.02604675 32.04278564 C138.0306074 34.44265389 138.03591262 36.84252083 138.04193115 39.24238586 C138.05086691 44.2718537 138.04843371 49.30116279 138.03849792 54.33062744 C138.02700782 60.77474499 138.04721865 67.21831463 138.07641506 73.66236019 C138.09476404 78.61834695 138.09448715 83.5742021 138.08877754 88.53021431 C138.08862417 90.90606009 138.09468164 93.2819147 138.10706902 95.6577282 C138.12195196 98.98035904 138.11132069 102.30197363 138.09416199 105.62457275 C138.10866394 107.09525208 138.10866394 107.09525208 138.12345886 108.59564209 C138.062613 114.22446118 137.58559297 117.82063248 133.592453 122.14044189 C129.94842157 123.95089767 126.98877252 124.3939752 122.94439697 124.40786743 C121.81869797 124.4163974 120.69299896 124.42492737 119.53318787 124.43371582 C117.6947934 124.43235626 117.6947934 124.43235626 115.81925964 124.43096924 C114.52118881 124.43768646 113.22311798 124.44440369 111.88571167 124.45132446 C108.33198028 124.4689612 104.77834526 124.47367879 101.22457433 124.47495604 C99.00280907 124.47637927 96.7810682 124.48065207 94.55930901 124.48595047 C86.80414656 124.50444152 79.04905278 124.51262205 71.29386902 124.51104736 C64.07116595 124.50984551 56.84876148 124.53095868 49.62613398 124.56253469 C43.41875782 124.58870275 37.21147918 124.59941448 31.00404829 124.59813654 C27.29934553 124.59762716 23.59490838 124.60329749 19.8902607 124.62449265 C15.75831357 124.64748843 11.62703436 124.638351 7.49504089 124.62628174 C6.27146881 124.63752075 5.04789673 124.64875977 3.7872467 124.66033936 C-6.76811111 124.58187487 -6.76811111 124.58187487 -11.407547 120.14044189 C-13.20192122 117.19288907 -13.6615689 114.99182638 -13.68170166 111.56173706 C-13.69167679 110.64776657 -13.70165192 109.73379608 -13.71192932 108.79212952 C-13.71259399 107.79670639 -13.71325867 106.80128326 -13.71394348 105.7756958 C-13.722267 104.72161026 -13.73059052 103.66752472 -13.73916626 102.58149719 C-13.7632826 99.09329547 -13.77204019 95.60528067 -13.77864075 92.11700439 C-13.78760535 89.69328759 -13.79672717 87.26957136 -13.80599976 84.84585571 C-13.82249643 79.76337335 -13.8301912 74.68095693 -13.83308411 69.59844971 C-13.83847052 63.08586404 -13.87615935 56.57389784 -13.92182827 50.0614872 C-13.95156891 45.05489844 -13.95880701 40.04845944 -13.95981026 35.04179001 C-13.96401796 32.64080338 -13.97647412 30.23981653 -13.9973278 27.83891678 C-14.02418039 24.48013977 -14.01943402 21.12280656 -14.00691223 17.76397705 C-14.02174652 16.77260239 -14.03658081 15.78122772 -14.05186462 14.7598114 C-14.00450689 10.29931854 -13.88644302 7.12037442 -11.05758667 3.53897095 C-7.36385995 0.19580936 -4.80269124 0.01461368 0 0 Z " fill="#F7F5F2" transform="translate(215.4075469970703,382.85955810546875)"/>
<path d="M0 0 C0 14.85 0 29.7 0 45 C-2.97 45.495 -2.97 45.495 -6 46 C-8.2734375 44.375 -8.2734375 44.375 -10.375 42 C-13.0574099 39.09961649 -15.67345633 36.30580576 -18.6875 33.75 C-24.96826019 28.36466387 -30.95476649 22.64618017 -37 17 C-27.17106092 6.89803484 -14.34081982 0 0 0 Z " fill="#F6F5F2" transform="translate(247,667)"/>
<path d="M0 0 C0 14.85 0 29.7 0 45 C-2.475 45.495 -2.475 45.495 -5 46 C-6.95703125 44.59375 -6.95703125 44.59375 -8.8125 42.5 C-11.30846886 39.80990023 -13.76295258 37.24852934 -16.5625 34.875 C-23.23895738 29.13888873 -29.58538067 23.02498132 -36 17 C-28.5455115 6.51997339 -12.59467362 0 0 0 Z " fill="#F6F5F3" transform="translate(482,667)"/>
<path d="M0 0 C13.19355955 1.64919494 27.1142845 6.52754959 36 17 C32.07616772 21.16488683 27.96083008 24.91287733 23.5 28.5 C19.61235077 31.62713782 16.03698468 34.86078891 12.55078125 38.421875 C10.12365207 40.8917999 7.8561455 43.01311618 5 45 C3.35 44.67 1.7 44.34 0 44 C0 29.48 0 14.96 0 0 Z " fill="#F6F5F3" transform="translate(269,667)"/>
<path d="M0 0 C12.47812734 1.55976592 23.24474313 5.88943107 33 14 C33.70897565 15.31132595 34.38372427 16.6426399 35 18 C19.13664796 32.89977733 19.13664796 32.89977733 13.69921875 37.53515625 C12.48983947 38.57772459 11.30734196 39.65182767 10.14453125 40.74609375 C9.53996094 41.30425781 8.93539062 41.86242187 8.3125 42.4375 C7.79300781 42.93121094 7.27351562 43.42492187 6.73828125 43.93359375 C5 45 5 45 0 45 C0 30.15 0 15.3 0 0 Z " fill="#F6F5F2" transform="translate(505,667)"/>
<path d="M0 0 C3 1 3 1 4.5 3.51953125 C8.96937338 13.33120249 12.09083545 22.15870936 12 33 C7.16195034 33.02487921 2.32393865 33.04294428 -2.51416016 33.05493164 C-4.15707041 33.05993363 -5.79997627 33.06673733 -7.44287109 33.07543945 C-9.81609181 33.0876874 -12.18925323 33.09326979 -14.5625 33.09765625 C-15.64893799 33.10539818 -15.64893799 33.10539818 -16.75732422 33.11329651 C-21.5874339 33.11381759 -26.21690863 32.68027235 -31 32 C-30.49122941 27.85817743 -29.45849193 25.9745462 -26.4375 23.125 C-25.71046875 22.4340625 -24.9834375 21.743125 -24.234375 21.03125 C-21.59217161 18.62924692 -18.92727759 16.26056289 -16.21875 13.93359375 C-12.5538103 10.73967623 -8.9935741 7.42990675 -5.41796875 4.13671875 C-3 2 -3 2 0 0 Z " fill="#F5F4F2" transform="translate(554,701)"/>
<path d="M0 0 C7.04734514 4.97459657 13.20027626 10.72033994 19.48730469 16.59619141 C23.48873924 20.309595 27.45458948 23.96972632 32 27 C32.1875 30.125 32.1875 30.125 32 33 C2.86097406 34.19388403 2.86097406 34.19388403 -10 34 C-10.73331183 21.28926155 -5.88655755 10.90222714 0 0 Z " fill="#F5F4F1" transform="translate(431,700)"/>
<path d="M0 0 C8.04332113 9.22414912 11.13663042 22.01378573 11 34 C-3.04136926 34.1162069 -16.9902386 33.99058919 -31 33 C-31.33 31.68 -31.66 30.36 -32 29 C-8.13996729 6.43228184 -8.13996729 6.43228184 0 0 Z " fill="#F6F6F3" transform="translate(319,700)"/>
<path d="M0 0 C6.7635994 4.73451958 12.64450235 10.22197178 18.64453125 15.86328125 C21.84352907 18.86888878 25.11434466 21.77857436 28.44921875 24.6328125 C28.96097656 25.08398438 29.47273438 25.53515625 30 26 C30.58394531 26.47179687 31.16789062 26.94359375 31.76953125 27.4296875 C32.17558594 27.94789063 32.58164063 28.46609375 33 29 C32.5769043 31.09814453 32.5769043 31.09814453 32 33 C17.9907504 33.67067454 4.02603124 34.15938672 -10 34 C-10.40384129 21.72943759 -5.37066251 10.77712943 0 0 Z " fill="#F6F6F3" transform="translate(195,700)"/>
<path d="M0 0 C14.36433378 -0.14159803 28.65439344 0.26592977 43 1 C41.76116241 13.16433076 36.94601037 23.01135685 30 33 C25.75309132 31.33898108 22.84611809 28.18747192 19.66796875 25.0390625 C19.07196365 24.45208588 18.47595856 23.86510925 17.8618927 23.26034546 C16.6077726 22.02070156 15.35641849 20.77825392 14.10766602 19.53320312 C12.18889322 17.62638454 10.2522576 15.73901206 8.31445312 13.8515625 C7.09781408 12.6443813 5.88227996 11.43608526 4.66796875 10.2265625 C4.08476364 9.66288971 3.50155853 9.09921692 2.90068054 8.51846313 C1.30151367 6.90087891 1.30151367 6.90087891 -1 4 C-0.6438446 1.81869507 -0.6438446 1.81869507 0 0 Z " fill="#F7F6F3" transform="translate(522,755)"/>
<path d="M0 0 C0.495 1.485 0.495 1.485 1 3 C-13 18 -13 18 -27 33 C-31.29142013 31.56952662 -32.37806978 28.40083593 -34.4375 24.625 C-34.83638428 23.90344727 -35.23526855 23.18189453 -35.64624023 22.43847656 C-39.31853141 15.65909397 -43 8.83760113 -43 1 C-28.65507373 0.05269355 -14.37370111 -0.11995 0 0 Z " fill="#F4F3F1" transform="translate(464,755)"/>
<path d="M0 0 C0.82421875 1.62890625 0.82421875 1.62890625 1 4 C-0.65753626 6.18647177 -2.26478243 8.00781501 -4.1875 9.9375 C-5.2945643 11.09086422 -6.40132612 12.24451883 -7.5078125 13.3984375 C-8.08305664 13.98979492 -8.65830078 14.58115234 -9.25097656 15.19042969 C-12.06793116 18.1049003 -14.8141455 21.08351436 -17.5625 24.0625 C-18.06225342 24.5980249 -18.56200684 25.1335498 -19.0769043 25.68530273 C-21.08176904 27.84520578 -22.98641062 29.98121013 -24.71484375 32.37109375 C-25.13894531 32.90863281 -25.56304687 33.44617188 -26 34 C-26.66 34 -27.32 34 -28 34 C-34.27045333 23.62185515 -40.27556236 13.1981273 -42 1 C-27.9907504 0.32932546 -14.02603124 -0.15938672 0 0 Z " fill="#F4F3F1" transform="translate(228,755)"/>
<path d="M0 0 C14.37042994 -0.13523642 28.65239711 0.17846037 43 1 C41.76116241 13.16433076 36.94601037 23.01135685 30 33 C23.47854246 27.64602018 17.60578929 21.68698091 11.6875 15.6875 C9.71511498 13.68853383 7.73943603 11.6929078 5.76171875 9.69921875 C4.89506592 8.82096436 4.02841309 7.94270996 3.13549805 7.0378418 C1.17041329 4.96272827 1.17041329 4.96272827 -1 4 C-0.67 2.68 -0.34 1.36 0 0 Z " fill="#F6F5F3" transform="translate(286,755)"/>
<path d="M0 0 C0 14.85 0 29.7 0 45 C-13.88135593 41.52966102 -13.88135593 41.52966102 -20.5625 38 C-21.24634766 37.65710938 -21.93019531 37.31421875 -22.63476562 36.9609375 C-25.83790814 35.31701323 -28.68110665 33.8001731 -31 31 C-29.41060574 27.06785699 -26.83657498 24.66979654 -23.8125 21.75 C-18.60693545 16.65889004 -13.74550824 11.38670974 -9.16015625 5.73046875 C-8.55042969 4.99441406 -7.94070313 4.25835938 -7.3125 3.5 C-6.77238281 2.8296875 -6.23226563 2.159375 -5.67578125 1.46875 C-4 0 -4 0 0 0 Z " fill="#F6F5F3" transform="translate(483,773)"/>
<path d="M0 0 C0.99 0.33 1.98 0.66 3 1 C3 15.85 3 30.7 3 46 C-10.57250269 42.60687433 -10.57250269 42.60687433 -16.4375 39.5625 C-17.57058594 38.98628906 -18.70367187 38.41007813 -19.87109375 37.81640625 C-22.85590274 36.08365197 -25.44840225 34.32266936 -28 32 C-28 31.34 -28 30.68 -28 30 C-27.34 30 -26.68 30 -26 30 C-25.75636719 29.42765625 -25.51273438 28.8553125 -25.26171875 28.265625 C-23.77482702 25.59566462 -22.01916092 23.86170993 -19.8125 21.75 C-16.29398007 18.31016901 -12.97818486 14.79384904 -9.7734375 11.0625 C-7.72897617 8.68480048 -5.64807236 6.34169529 -3.5625 4 C-2.88316406 3.236875 -2.20382813 2.47375 -1.50390625 1.6875 C-1.00761719 1.130625 -0.51132813 0.57375 0 0 Z " fill="#F6F5F3" transform="translate(245,772)"/>
<path d="M0 0 C3.96272952 0.99068238 4.6846985 1.30926644 7.3125 4.0625 C8.23095703 5.0215625 8.23095703 5.0215625 9.16796875 6 C11.4333353 8.4730654 13.63548729 10.99421513 15.82421875 13.53515625 C20.76340028 19.13053066 25.9059429 24.54591179 31 30 C29.63015784 34.10952648 26.95443718 35.03594961 23.3125 36.9375 C22.64782715 37.28941406 21.9831543 37.64132812 21.29833984 38.00390625 C15.07583706 41.17760307 7.06718415 45 0 45 C0 30.15 0 15.3 0 0 Z " fill="#F8F7F4" transform="translate(503,773)"/>
<path d="M0 0 C4.41824167 1.10456042 4.99326154 1.73168376 7.8125 5.0625 C12.06229037 9.95791796 16.43282989 14.71572663 20.875 19.4375 C21.52960205 20.13560791 22.1842041 20.83371582 22.85864258 21.55297852 C26.20466306 25.14765586 26.20466306 25.14765586 29.70361328 28.59008789 C31 30 31 30 31 32 C22.08938415 38.58755027 10.14463192 44 -1 44 C-0.67 29.48 -0.34 14.96 0 0 Z " fill="#F6F5F3" transform="translate(268,773)"/>
<path d="M0 0 C6.93 0.495 6.93 0.495 14 1 C14 1.33 14 1.66 14 2 C10.04 2 6.08 2 2 2 C2 34.67 2 67.34 2 101 C32.03 101 62.06 101 93 101 C92.92097959 83.54376063 92.92097959 83.54376063 92.81982422 66.08764648 C92.81398002 63.89046422 92.80888429 61.69327978 92.8046875 59.49609375 C92.79445557 58.36594849 92.78422363 57.23580322 92.77368164 56.07141113 C92.77241108 50.31260385 93.02728069 45.43009762 95 40 C96.02668449 43.36252603 96.08914278 46.3645753 96.02172852 49.87011719 C96.00130493 51.06749512 95.98088135 52.26487305 95.95983887 53.49853516 C95.9331311 54.7519873 95.90642334 56.00543945 95.87890625 57.296875 C95.85824097 58.45268066 95.83757568 59.60848633 95.81628418 60.79931641 C95.73752839 65.11632141 95.64945397 69.43315235 95.5625 73.75 C95.2840625 88.22875 95.2840625 88.22875 95 103 C63.65 103 32.3 103 0 103 C0 69.01 0 35.02 0 0 Z " fill="#E7E7E5" transform="translate(401,371)"/>
<path d="M0 0 C3 2 3 2 3.36914349 3.82345009 C3.36637811 4.56641523 3.36361273 5.30938038 3.36076355 6.07485962 C3.36489604 6.92566416 3.36902853 7.7764687 3.37328625 8.65305519 C3.36249192 9.59206358 3.3516976 10.53107197 3.34057617 11.49853516 C3.34093778 12.49990698 3.34129938 13.5012788 3.34167194 14.53299522 C3.33942676 17.78521868 3.31655336 21.03693092 3.29296875 24.2890625 C3.28855978 26.29255932 3.28549809 28.29605958 3.28381348 30.29956055 C3.26806305 37.74142628 3.22617965 45.18321812 3.1875 52.625 C3.125625 69.24875 3.06375 85.8725 3 103 C-39.9 103 -82.8 103 -127 103 C-126.67 101.35 -126.34 99.7 -126 98 C-125.67 98.99 -125.34 99.98 -125 101 C-83.42 101 -41.84 101 1 101 C0.67 67.67 0.34 34.34 0 0 Z " fill="#E4E3E1" transform="translate(706,371)"/>
<path d="M0 0 C45.21 0 90.42 0 137 0 C137.33 0.99 137.66 1.98 138 3 C91.8 3 45.6 3 -2 3 C-1.34 2.67 -0.68 2.34 0 2 C0 1.34 0 0.68 0 0 Z " fill="#EFEEEB" transform="translate(680,298)"/>
<path d="M0 0 C7.88972722 1.12710389 7.88972722 1.12710389 12.25 3.4375 C13.08015625 3.86933594 13.9103125 4.30117188 14.765625 4.74609375 C16.55722929 5.75152203 18.29060093 6.86040062 20 8 C18.34152456 12.39763486 15.04005731 15.17575659 11.6875 18.3125 C11.11837891 18.87517578 10.54925781 19.43785156 9.96289062 20.01757812 C9.40150391 20.54416016 8.84011719 21.07074219 8.26171875 21.61328125 C7.75600342 22.09579346 7.25028809 22.57830566 6.72924805 23.07543945 C5 24 5 24 0 23 C0 15.41 0 7.82 0 0 Z " fill="#EEEDEB" transform="translate(717,729)"/>
<path d="M0 0 C0 7.59 0 15.18 0 23 C-1.65 23.33 -3.3 23.66 -5 24 C-6.73828125 22.8125 -6.73828125 22.8125 -8.3125 21 C-11.95840957 17.008773 -15.89366566 13.50904934 -20 10 C-15.36658535 4.20823168 -7.48680763 0 0 0 Z " fill="#F6F5F3" transform="translate(697,729)"/>
<path d="M0 0 C0.66 0.33 1.32 0.66 2 1 C1.67 1.66 1.34 2.32 1 3 C0.89709329 4.33004516 0.85360158 5.66496404 0.84178162 6.99893188 C0.8319928 7.83468246 0.82220398 8.67043304 0.81211853 9.5315094 C0.80636307 10.45004196 0.8006076 11.36857452 0.79467773 12.31494141 C0.78477814 13.28083694 0.77487854 14.24673248 0.76467896 15.24189758 C0.73300784 18.44509401 0.70828435 21.64830528 0.68359375 24.8515625 C0.66302907 27.06831251 0.64203273 29.28505855 0.62062073 31.50180054 C0.56534988 37.34449051 0.51596273 43.18721616 0.46777344 49.02996826 C0.41759498 54.98876125 0.36188986 60.94750225 0.30664062 66.90625 C0.19899774 78.60412228 0.09756641 90.30203965 0 102 C0.94101562 101.98839844 1.88203125 101.97679687 2.8515625 101.96484375 C4.09679687 101.95582031 5.34203125 101.94679688 6.625 101.9375 C7.85476563 101.92589844 9.08453125 101.91429687 10.3515625 101.90234375 C13.67723791 101.99136076 16.74047588 102.36313913 20 103 C20 103.33 20 103.66 20 104 C12.74 104 5.48 104 -2 104 C-2.04513389 90.88305031 -2.08184866 77.76615195 -2.10362434 64.64914227 C-2.11407407 58.55879017 -2.12825498 52.46849383 -2.15087891 46.37817383 C-2.17256485 40.50378176 -2.18455966 34.62944342 -2.18975449 28.75501442 C-2.19345789 26.51066047 -2.20068942 24.26630954 -2.21146011 22.02197838 C-2.22591849 18.8852738 -2.22798031 15.74879293 -2.22705078 12.61206055 C-2.23424133 11.67842178 -2.24143188 10.74478302 -2.24884033 9.78285217 C-2.246091 8.92889862 -2.24334167 8.07494507 -2.24050903 7.19511414 C-2.24235262 6.45307078 -2.24419621 5.71102743 -2.24609566 4.94649792 C-2 3 -2 3 0 0 Z " fill="#DEDEDD" transform="translate(793,370)"/>
<path d="M0 0 C0.66 1.32 1.32 2.64 2 4 C1.48050781 4.50789062 0.96101562 5.01578125 0.42578125 5.5390625 C-3.6224371 9.53490094 -7.44650891 13.55813614 -11 18 C-15.9962796 13.83643366 -18.04953742 9.15648802 -20 3 C-20 2.34 -20 1.68 -20 1 C-13.30324864 -0.03026944 -6.7685324 -0.10152799 0 0 Z " fill="#F5F4F2" transform="translate(680,791)"/>
<path d="M0 0 C6.76594019 -0.11381955 13.28837062 0.11978631 20 1 C18.19389405 7.34339651 15.74372266 12.56938255 12 18 C6.76564995 13.72706118 2.32893185 9.18419194 -2 4 C-1.34 2.68 -0.68 1.36 0 0 Z " fill="#F5F4F2" transform="translate(735,791)"/>
<path d="M0 0 C4.28760645 1.40867501 6.91917898 3.48207035 10.1875 6.5625 C13.34188937 9.64185798 13.34188937 9.64185798 17 12 C16.67 13.32 16.34 14.64 16 16 C9.29980211 16.70132913 2.73742646 17.11044961 -4 17 C-4.56131481 10.54487966 -2.63463787 5.84560277 0 0 Z " fill="#F4F3F1" transform="translate(663,755)"/>
<path d="M0 0 C2.9690652 2.47006264 3.73898943 4.73881064 4.6875 8.4375 C4.93886719 9.38496094 5.19023438 10.33242188 5.44921875 11.30859375 C6 14 6 14 6 18 C-0.93 17.67 -7.86 17.34 -15 17 C-13.95275046 12.81100183 -13.29214724 11.92863687 -10.3125 9.0625 C-9.59707031 8.37285156 -8.88164063 7.68320312 -8.14453125 6.97265625 C-5.50280457 4.54265265 -2.80262718 2.24210174 0 0 Z " fill="#F6F5F3" transform="translate(750,754)"/>
<path d="M0 0 C4.78777214 1.19694304 6.64314677 3.49491919 9.75 7.0625 C10.25660156 7.63033203 10.76320313 8.19816406 11.28515625 8.78320312 C12.53113136 10.1819865 13.76660973 11.59010733 15 13 C14.67 13.99 14.34 14.98 14 16 C11.6015625 17.16796875 11.6015625 17.16796875 8.625 18.1875 C7.64789062 18.53167969 6.67078125 18.87585938 5.6640625 19.23046875 C3 20 3 20 0 20 C0 13.4 0 6.8 0 0 Z " fill="#F4F4F2" transform="translate(717,807)"/>
<path d="M0 0 C0 6.6 0 13.2 0 20 C-10.125 17.75 -10.125 17.75 -15 15 C-12.85123646 11.17768025 -10.41178875 7.96326235 -7.5 4.6875 C-6.7265625 3.80449219 -5.953125 2.92148437 -5.15625 2.01171875 C-3 0 -3 0 0 0 Z " fill="#F3F3F1" transform="translate(698,807)"/>
<path d="M0 0 C0 0.99 0 1.98 0 3 C-0.99 3.495 -0.99 3.495 -2 4 C48.82 4.33 99.64 4.66 152 5 C152 5.33 152 5.66 152 6 C98.54 6 45.08 6 -10 6 C-6.68366796 3.51275097 -3.70626844 1.76890085 0 0 Z " fill="#FEFEFE" transform="translate(747,844)"/>
<path d="M0 0 C7.40774509 1.39304941 14.70170537 3.11899623 22 5 C22 5.33 22 5.66 22 6 C21.25648285 5.93148331 20.5129657 5.86296661 19.74691772 5.79237366 C8.16199428 4.83769559 -3.40571581 4.77584656 -15.0234375 4.68359375 C-17.2230362 4.66298014 -19.42263134 4.64198266 -21.6222229 4.62062073 C-27.36609986 4.56585456 -33.11000983 4.51624798 -38.85394287 4.46777344 C-44.73338704 4.417223 -50.61278426 4.36171338 -56.4921875 4.30664062 C-67.9947514 4.19961646 -79.49735636 4.09805159 -91 4 C-91 3.67 -91 3.34 -91 3 C-61.3 2.67 -31.6 2.34 -1 2 C-0.67 1.34 -0.34 0.68 0 0 Z " fill="#EEEDEA" transform="translate(465,845)"/>
<path d="M0 0 C1.17925049 -0.00845947 1.17925049 -0.00845947 2.38232422 -0.01708984 C5.59973732 0.08883619 8.57644394 0.76037532 11.6875 1.5546875 C12.80382812 1.833125 13.92015625 2.1115625 15.0703125 2.3984375 C16.30394531 2.72328125 16.30394531 2.72328125 17.5625 3.0546875 C17.5625 3.3846875 17.5625 3.7146875 17.5625 4.0546875 C-4.8775 3.3946875 -27.3175 2.7346875 -50.4375 2.0546875 C-50.4375 1.7246875 -50.4375 1.3946875 -50.4375 1.0546875 C-44.21194659 0.91081485 -37.98636106 0.76845311 -31.76074219 0.62744141 C-29.64647508 0.57934586 -27.53221702 0.53085021 -25.41796875 0.48193359 C-22.36460678 0.4113606 -19.31121424 0.34226591 -16.2578125 0.2734375 C-15.32510529 0.25156372 -14.39239807 0.22968994 -13.431427 0.20715332 C-8.95452996 0.10758324 -4.47793634 0.03044999 0 0 Z " fill="#F1F0EE" transform="translate(236.4375,846.9453125)"/>
<path d="M0 0 C2.19274086 4.38548172 2.23367512 6.55693528 2.1953125 11.390625 C2.1924826 12.09523865 2.18965271 12.79985229 2.18673706 13.52581787 C2.17557801 15.7673876 2.15048193 18.00855186 2.125 20.25 C2.11496464 21.77343171 2.10583976 23.29686971 2.09765625 24.8203125 C2.07565291 28.54700586 2.04115272 32.27346333 2 36 C2.81984375 35.97679687 3.6396875 35.95359375 4.484375 35.9296875 C6.10085938 35.90261719 6.10085938 35.90261719 7.75 35.875 C8.81734375 35.85179687 9.8846875 35.82859375 10.984375 35.8046875 C14 36 14 36 18 38 C12.06 38 6.12 38 0 38 C0 25.46 0 12.92 0 0 Z " fill="#FCFCFB" transform="translate(852,516)"/>
<path d="M0 0 C0.99 0 1.98 0 3 0 C3 14.85 3 29.7 3 45 C1.68 44.67 0.36 44.34 -1 44 C-0.34 44 0.32 44 1 44 C1 30.14 1 16.28 1 2 C0.34 1.67 -0.32 1.34 -1 1 C-0.67 0.67 -0.34 0.34 0 0 Z " fill="#DEDEDD" transform="translate(244,667)"/>
<path d="M0 0 C0.33 0 0.66 0 1 0 C1.02505615 1.20124512 1.0501123 2.40249023 1.07592773 3.64013672 C1.16993144 8.08686429 1.27016917 12.53343307 1.37231445 16.97998047 C1.41569001 18.90637504 1.45736314 20.83280871 1.49731445 22.75927734 C1.55495362 25.52453408 1.61866616 28.2895935 1.68359375 31.0546875 C1.70030624 31.9193161 1.71701874 32.7839447 1.73423767 33.67477417 C1.72159896 37.97395852 1.72159896 37.97395852 3 42 C1.68 42 0.36 42 -1 42 C-1.02464638 36.17928378 -1.0428343 30.35859766 -1.05493164 24.5378418 C-1.05997267 22.55606559 -1.06680538 20.57429311 -1.07543945 18.5925293 C-1.08751515 15.75047891 -1.09323045 12.90847753 -1.09765625 10.06640625 C-1.10281754 9.17474258 -1.10797882 8.28307892 -1.11329651 7.36439514 C-1.11349177 5.24259399 -1.0621003 3.1208922 -1 1 C-0.67 0.67 -0.34 0.34 0 0 Z " fill="#FBFBFA" transform="translate(506,670)"/>
<path d="M0 0 C0.49371094 0.37640625 0.98742187 0.7528125 1.49609375 1.140625 C0.50609375 2.130625 -0.48390625 3.120625 -1.50390625 4.140625 C2.45609375 4.140625 6.41609375 4.140625 10.49609375 4.140625 C10.49609375 4.470625 10.49609375 4.800625 10.49609375 5.140625 C-5.34390625 5.635625 -5.34390625 5.635625 -21.50390625 6.140625 C-18.03223819 3.82617963 -14.50050927 2.6515103 -10.56640625 1.390625 C-9.85033203 1.14441406 -9.13425781 0.89820313 -8.39648438 0.64453125 C-3.08480971 -1.05874904 -3.08480971 -1.05874904 0 0 Z " fill="#F0EFEE" transform="translate(289.50390625,843.859375)"/>
<path d="M0 0 C3.29164717 -0.02952761 6.58325938 -0.04697292 9.875 -0.0625 C11.25171875 -0.07506836 11.25171875 -0.07506836 12.65625 -0.08789062 C18.8335647 -0.10964173 24.86721835 0.26069892 31 1 C29 3 29 3 27.03125 3.265625 C17.94700986 3.20954944 9.00455928 2.10947265 0 1 C0 0.67 0 0.34 0 0 Z " fill="#E9E9E7" transform="translate(481,614)"/>
<path d="M0 0 C0.66 0.33 1.32 0.66 2 1 C1.01 1 0.02 1 -1 1 C-0.67 0.67 -0.34 0.34 0 0 Z M-3 2 C-2.34 2.33 -1.68 2.66 -1 3 C-2.98 3.99 -2.98 3.99 -5 5 C-4.34 4.01 -3.68 3.02 -3 2 Z M-7 5 C-6.34 5.33 -5.68 5.66 -5 6 C-6.32 7.65 -7.64 9.3 -9 11 C-2.07 11.495 -2.07 11.495 5 12 C5 12.33 5 12.66 5 13 C-1.6 13 -8.2 13 -15 13 C-13.68 12.01 -12.36 11.02 -11 10 C-10.67 9.01 -10.34 8.02 -10 7 C-9.01 6.34 -8.02 5.68 -7 5 Z " fill="#EFEEEC" transform="translate(758,836)"/>
<path d="M0 0 C1.79093191 -0.08086147 3.58289628 -0.13912702 5.375 -0.1875 C6.87160156 -0.23970703 6.87160156 -0.23970703 8.3984375 -0.29296875 C9.25695312 -0.19628906 10.11546875 -0.09960938 11 0 C11.66 0.99 12.32 1.98 13 3 C9.04 3 5.08 3 1 3 C1.33 4.32 1.66 5.64 2 7 C0.68 6.01 -0.64 5.02 -2 4 C-1.34 2.68 -0.68 1.36 0 0 Z " fill="#ECECEA" transform="translate(735,791)"/>
<path d="M0 0 C6.6 0 13.2 0 20 0 C20 0.33 20 0.66 20 1 C19.10796875 1.06058594 18.2159375 1.12117187 17.296875 1.18359375 C15.54117188 1.30927734 15.54117188 1.30927734 13.75 1.4375 C12.58984375 1.51871094 11.4296875 1.59992187 10.234375 1.68359375 C7.13050083 1.90211812 7.13050083 1.90211812 4.703125 2.59765625 C3 3 3 3 1 2 C1.66 3.65 2.32 5.3 3 7 C1.68 6.01 0.36 5.02 -1 4 C-0.67 2.68 -0.34 1.36 0 0 Z " fill="#D7D6D5" transform="translate(522,755)"/>
<path d="M0 0 C0.33 0 0.66 0 1 0 C1 2.64 1 5.28 1 8 C-6.92 8 -14.84 8 -23 8 C-23 7.67 -23 7.34 -23 7 C-22.40461426 6.97494385 -21.80922852 6.9498877 -21.19580078 6.92407227 C-18.50530864 6.80822506 -15.8151766 6.68544804 -13.125 6.5625 C-12.18785156 6.52318359 -11.25070312 6.48386719 -10.28515625 6.44335938 C-9.38925781 6.40146484 -8.49335938 6.35957031 -7.5703125 6.31640625 C-6.74289551 6.27974854 -5.91547852 6.24309082 -5.06298828 6.20532227 C-2.93820571 6.11761673 -2.93820571 6.11761673 -1 5 C-0.34444881 2.47266765 -0.34444881 2.47266765 0 0 Z " fill="#C4C4C3" transform="translate(329,726)"/>
<path d="M0 0 C0.66 0 1.32 0 2 0 C2 1.65 2 3.3 2 5 C7.28 5.33 12.56 5.66 18 6 C18 6.33 18 6.66 18 7 C12.06 7 6.12 7 0 7 C0 4.69 0 2.38 0 0 Z " fill="#D0CFCF" transform="translate(185,727)"/>
<path d="M0 0 C1 1 2 2 3 3 C3.495 3.4228125 3.99 3.845625 4.5 4.28125 C6.40421052 6.46315789 6.92873057 8.40534543 7.6875 11.1875 C8.06455078 12.53908203 8.06455078 12.53908203 8.44921875 13.91796875 C8.63097656 14.60503906 8.81273437 15.29210937 9 16 C8.34 16 7.68 16 7 16 C5.82558465 13.89983377 4.66035988 11.79541245 3.5 9.6875 C3.16613281 9.09259766 2.83226562 8.49769531 2.48828125 7.88476562 C0.93174886 5.04171156 0 3.29339012 0 0 Z " fill="#E9E9E8" transform="translate(579,681)"/>
<path d="M0 0 C0 0.66 0 1.32 0 2 C-3.63 2.66 -7.26 3.32 -11 4 C-11.33 3.01 -11.66 2.02 -12 1 C-3.96428571 -1.27678571 -3.96428571 -1.27678571 0 0 Z " fill="#E7E7E5" transform="translate(236,617)"/>
<path d="M0 0 C0.33 0 0.66 0 1 0 C1.10832169 2.08218362 1.18573541 4.16599129 1.25 6.25 C1.29640625 7.41015625 1.3428125 8.5703125 1.390625 9.765625 C0.93035506 13.57666013 -0.05148444 14.65511755 -3 17 C-2.69188262 14.54104382 -2.37871012 12.08291693 -2.0625 9.625 C-1.97548828 8.92632813 -1.88847656 8.22765625 -1.79882812 7.5078125 C-1.11328125 2.2265625 -1.11328125 2.2265625 0 0 Z " fill="#E5E6E4" transform="translate(596,748)"/>
<path d="M0 0 C3.38891322 0.68886787 6.18011613 1.98716486 9.25 3.5625 C10.14203125 4.01753906 11.0340625 4.47257813 11.953125 4.94140625 C12.96632813 5.46541016 12.96632813 5.46541016 14 6 C14 6.66 14 7.32 14 8 C3.66812227 5.21834061 3.66812227 5.21834061 0 1 C0 0.67 0 0.34 0 0 Z " fill="#EEEDEC" transform="translate(441,834)"/>
<path d="M0 0 C0.66 0.33 1.32 0.66 2 1 C0.68 5.62 -0.64 10.24 -2 15 C-2.66 14.67 -3.32 14.34 -4 14 C-4.56561146 8.34388537 -2.71391278 4.77357872 0 0 Z " fill="#EDEDEB" transform="translate(396,704)"/>
<path d="M0 0 C5.08200552 -0.2074288 9.20853178 0.24927123 14 2 C15.703125 3.57421875 15.703125 3.57421875 17 5 C14.91480784 4.7438709 12.8318495 4.46951265 10.75 4.1875 C9.58984375 4.03667969 8.4296875 3.88585937 7.234375 3.73046875 C4.01605334 3.00362557 2.41668345 2.18338975 0 0 Z " fill="#EDEDEB" transform="translate(500,634)"/>
<path d="M0 0 C0.66 0.66 1.32 1.32 2 2 C-4.93 1.67 -11.86 1.34 -19 1 C-19 0.67 -19 0.34 -19 0 C-5.86335019 -1.40210548 -5.86335019 -1.40210548 0 0 Z " fill="#F0EFED" transform="translate(677,848)"/>
<path d="M0 0 C6.2054142 0.48320848 11.99945246 1.33318124 18 3 C18 3.33 18 3.66 18 4 C15.74928094 3.9127395 13.49936612 3.80455885 11.25 3.6875 C9.37054688 3.60048828 9.37054688 3.60048828 7.453125 3.51171875 C3.96923537 2.99544099 2.52110204 2.3746744 0 0 Z " fill="#F2F2F1" transform="translate(469,847)"/>
<path d="M0 0 C2.29946417 3.44919626 2.80769035 6.1381022 3.625 10.1875 C3.88539063 11.45980469 4.14578125 12.73210938 4.4140625 14.04296875 C4.60742188 15.01878906 4.80078125 15.99460937 5 17 C3 16 3 16 1.9140625 13.80078125 C0.95491255 10.86184742 0.59753701 8.26592867 0.375 5.1875 C0.30023437 4.21167969 0.22546875 3.23585938 0.1484375 2.23046875 C0.09945312 1.49441406 0.05046875 0.75835938 0 0 Z " fill="#EAEAE9" transform="translate(561,712)"/>
<path d="M0 0 C-6.03076923 5.04615385 -6.03076923 5.04615385 -10.9375 4.8125 C-11.948125 4.544375 -12.95875 4.27625 -14 4 C-11.36711169 2.57385216 -8.65544851 1.41456868 -5.875 0.3125 C-5.19179688 0.04050781 -4.50859375 -0.23148438 -3.8046875 -0.51171875 C-2 -1 -2 -1 0 0 Z " fill="#E8E8E7" transform="translate(556,227)"/>
<path d="M0 0 C0.99 0.33 1.98 0.66 3 1 C1.71451591 2.33929505 0.42141845 3.67128643 -0.875 5 C-1.59429687 5.7425 -2.31359375 6.485 -3.0546875 7.25 C-5 9 -5 9 -7 9 C-5.44499019 5.18315774 -2.96404505 2.80804268 0 0 Z " fill="#EAEBE9" transform="translate(332,813)"/>
<path d="M0 0 C3.96 0 7.92 0 12 0 C12.66 1.32 13.32 2.64 14 4 C13.01 4.66 12.02 5.32 11 6 C11 5.01 11 4.02 11 3 C7.37 2.34 3.74 1.68 0 1 C0 0.67 0 0.34 0 0 Z " fill="#DADAD9" transform="translate(668,791)"/>
<path d="M0 0 C0.89332031 0.03480469 1.78664063 0.06960938 2.70703125 0.10546875 C3.60808594 0.13253906 4.50914062 0.15960937 5.4375 0.1875 C6.46810547 0.23970703 6.46810547 0.23970703 7.51953125 0.29296875 C7.18953125 1.28296875 6.85953125 2.27296875 6.51953125 3.29296875 C2.55953125 3.29296875 -1.40046875 3.29296875 -5.48046875 3.29296875 C-2.48046875 0.29296875 -2.48046875 0.29296875 0 0 Z " fill="#ECEBE9" transform="translate(809.48046875,738.70703125)"/>
<path d="M0 0 C4.95 0.99 4.95 0.99 10 2 C10 2.66 10 3.32 10 4 C10.99 4.33 11.98 4.66 13 5 C12.67 5.66 12.34 6.32 12 7 C8.04 5.35 4.08 3.7 0 2 C0 1.34 0 0.68 0 0 Z " fill="#EBEBEA" transform="translate(729,702)"/>
<path d="M0 0 C2.5625718 -0.02710123 5.12485365 -0.04688771 7.6875 -0.0625 C8.40873047 -0.07087891 9.12996094 -0.07925781 9.87304688 -0.08789062 C13.71555382 -0.10543632 17.26639526 0.06475779 21 1 C21 1.33 21 1.66 21 2 C18.69 2.33 16.38 2.66 14 3 C14 2.34 14 1.68 14 1 C9.38 1 4.76 1 0 1 C0 0.67 0 0.34 0 0 Z " fill="#CBCAC8" transform="translate(523,231)"/>
<path d="M0 0 C4.59306496 1.4859916 7.43569245 3.85014682 11 7 C10.01 7.33 9.02 7.66 8 8 C5.97945196 6.35830472 3.97956942 4.69088222 2 3 C1.01 3 0.02 3 -1 3 C-0.67 2.01 -0.34 1.02 0 0 Z " fill="#ECECEB" transform="translate(663,755)"/>
<path d="M0 0 C3.67420866 0.30618405 4.78135513 0.75771784 7.3125 3.5625 C8.1478125 4.7690625 8.1478125 4.7690625 9 6 C4.75354935 6 2.61475228 4.18249194 -1 2 C-0.67 1.34 -0.34 0.68 0 0 Z " fill="#EBEBEA" transform="translate(744,708)"/>
<path d="M0 0 C0.99 0 1.98 0 3 0 C3.33 3.3 3.66 6.6 4 10 C3.01 10 2.02 10 1 10 C1.020625 9.278125 1.04125 8.55625 1.0625 7.8125 C1.00179441 5.08074862 0.60741465 2.65743909 0 0 Z " fill="#E4E3E1" transform="translate(154,751)"/>
<path d="M0 0 C0.66 0 1.32 0 2 0 C3.65 3.3 5.3 6.6 7 10 C2 8 2 8 1.07421875 6.0546875 C0.71614583 4.03645833 0.35807292 2.01822917 0 0 Z " fill="#EDEEEC" transform="translate(471,193)"/>
<path d="M0 0 C2.63045135 2.48592106 3.94689361 4.48964537 5 8 C4.67 8.99 4.34 9.98 4 11 C3.34 10.67 2.68 10.34 2 10 C1.3671875 7.71484375 1.3671875 7.71484375 0.875 4.9375 C0.70742188 4.01839844 0.53984375 3.09929687 0.3671875 2.15234375 C0.24601563 1.44207031 0.12484375 0.73179687 0 0 Z " fill="#F1F1EF" transform="translate(767,165)"/>
<path d="M0 0 C0.33 0 0.66 0 1 0 C1.33 5.28 1.66 10.56 2 16 C1.01 16 0.02 16 -1 16 C-0.67 10.72 -0.34 5.44 0 0 Z " fill="#ECEBEA" transform="translate(696,811)"/>
<path d="M0 0 C0.66 0.66 1.32 1.32 2 2 C-0.31 3.65 -2.62 5.3 -5 7 C-5 6.01 -5 5.02 -5 4 C-2.5 1.8125 -2.5 1.8125 0 0 Z M-8 6 C-7.34 6.33 -6.68 6.66 -6 7 C-6.99 7 -7.98 7 -9 7 C-8.67 6.67 -8.34 6.34 -8 6 Z " fill="#F0EFEE" transform="translate(653,695)"/>
<path d="M0 0 C3.48670834 1.1094072 6.77484237 2.26337666 10 4 C10 4.66 10 5.32 10 6 C6.33118845 5.29445932 3.29549466 3.72264494 0 2 C0 1.34 0 0.68 0 0 Z " fill="#E5E5E4" transform="translate(307,625)"/>
<path d="M0 0 C0.33 0.99 0.66 1.98 1 3 C0.01 3 -0.98 3 -2 3 C-1.34 2.01 -0.68 1.02 0 0 Z M-4 3 C-3.34 3.33 -2.68 3.66 -2 4 C-3.32 5.32 -4.64 6.64 -6 8 C-6.99 7.34 -7.98 6.68 -9 6 C-6.625 4.4375 -6.625 4.4375 -4 3 Z " fill="#ECECEB" transform="translate(315,828)"/>
<path d="M0 0 C0.66 0.99 1.32 1.98 2 3 C0.35 4.98 -1.3 6.96 -3 9 C-3.99 8.34 -4.98 7.68 -6 7 C-5.01 6.67 -4.02 6.34 -3 6 C-3 5.34 -3 4.68 -3 4 C-2.34 4 -1.68 4 -1 4 C-0.67 2.68 -0.34 1.36 0 0 Z " fill="#EEEEED" transform="translate(463,755)"/>
<path d="M0 0 C0.33 0.99 0.66 1.98 1 3 C-2.63 3 -6.26 3 -10 3 C-6.48579734 1.24289867 -3.89581553 0 0 0 Z " fill="#F1F1F0" transform="translate(512,847)"/>
<path d="M0 0 C2.12508244 3.18762365 2.5020163 5.26512223 3 9 C2.01 8.67 1.02 8.34 0 8 C-0.38063221 5.6739143 -0.71269945 3.33944736 -1 1 C-0.67 0.67 -0.34 0.34 0 0 Z " fill="#F1F1EF" transform="translate(633,799)"/>
<path d="M0 0 C3.76024616 2.50683077 4.39192086 4.86493934 6 9 C5.01 9 4.02 9 3 9 C0 3.375 0 3.375 0 0 Z " fill="#E6E5E4" transform="translate(346,686)"/>
<path d="M0 0 C0.66 0.33 1.32 0.66 2 1 C1.34 1.66 0.68 2.32 0 3 C0 2.01 0 1.02 0 0 Z M-3 2 C-2.34 2 -1.68 2 -1 2 C-1.33 2.99 -1.66 3.98 -2 5 C-2.66 4.34 -3.32 3.68 -4 3 C-3.67 2.67 -3.34 2.34 -3 2 Z M-6 7 C-5.67 7.66 -5.34 8.32 -5 9 C-5.66 8.67 -6.32 8.34 -7 8 C-6.67 7.67 -6.34 7.34 -6 7 Z " fill="#F1F2EF" transform="translate(182,640)"/>
<path d="M0 0 C0.78375 0.04125 1.5675 0.0825 2.375 0.125 C2.375 0.785 2.375 1.445 2.375 2.125 C3.695 2.455 5.015 2.785 6.375 3.125 C2.12438644 4.54187119 -0.34351625 3.31820039 -4.625 2.125 C-2.625 0.125 -2.625 0.125 0 0 Z " fill="#EAE9E8" transform="translate(283.625,636.875)"/>
<path d="M0 0 C0.66 0.33 1.32 0.66 2 1 C2 2.65 2 4.3 2 6 C0.02 6 -1.96 6 -4 6 C-3.67 5.34 -3.34 4.68 -3 4 C-2.01 4 -1.02 4 0 4 C0 2.68 0 1.36 0 0 Z " fill="#FBFBFA" transform="translate(564,728)"/>
<path d="M0 0 C2.1519437 3.22791555 2.20086443 4.28400809 2 8 C1.01 8.33 0.02 8.66 -1 9 C-0.67 6.03 -0.34 3.06 0 0 Z " fill="#E4E4E2" transform="translate(138,709)"/>
<path d="M0 0 C2.64 0.66 5.28 1.32 8 2 C7.67 2.99 7.34 3.98 7 5 C4.69 4.01 2.38 3.02 0 2 C0 1.34 0 0.68 0 0 Z " fill="#EFEEED" transform="translate(291,619)"/>
<path d="M0 0 C0 0.99 0 1.98 0 3 C-2.5 5.1875 -2.5 5.1875 -5 7 C-4.60196439 4.11424181 -4.20990931 3.17810487 -1.9375 1.25 C-1.298125 0.8375 -0.65875 0.425 0 0 Z " fill="#EEEDEC" transform="translate(747,757)"/>
</svg>
